Coordinates
version=1
nRows=12
nColumns=24
inDegrees=yes

Units are S.I. units (second, meters, Newtons, ...)
Angles are in degrees.

endheader
time	pelvis_tilt	pelvis_list	pelvis_rotation	pelvis_tx	pelvis_ty	pelvis_tz	hip_flexion_r	hip_adduction_r	hip_rotation_r	knee_angle_r	ankle_angle_r	subtalar_angle_r	mtp_angle_r	hip_flexion_l	hip_adduction_l	hip_rotation_l	knee_angle_l	ankle_angle_l	subtalar_angle_l	mtp_angle_l	lumbar_extension	lumbar_bending	lumbar_rotation
      2.52500000	    -10.63213569	     10.36405348	     -4.79660620	     -2.26304908	     -0.04384757	      0.44384541	     12.82121353	    -11.49762179	      6.09971575	    -56.40098580	    -12.40297148	      7.83832822	     20.24030414	     31.95721534	     14.39720903	      3.62892566	    -27.04648678	     -2.36043252	     -6.36227943	     -1.02989064	      8.75685379	    -11.21634227	     13.73181288
      2.53000000	    -10.59284396	     10.38253886	     -4.71182033	     -2.25589918	     -0.04268202	      0.44330945	     13.81391041	    -11.54337242	      6.10987115	    -57.33294615	    -12.25024756	      7.35071701	     20.31020551	     31.26562141	     14.57670108	      3.82321593	    -26.74556687	     -2.06550996	     -6.43424585	     -1.00110518	      8.65683220	    -11.24233355	     13.46773931
      2.53500000	    -10.64372617	     10.32923562	     -4.62339696	     -2.24887537	     -0.04155809	      0.44276186	     14.90960455	    -11.48653063	      6.11739276	    -58.19622622	    -12.10916997	      6.89690157	     20.41638890	     30.67746640	     14.67245224	      4.03733299	    -26.46781924	     -1.80057962	     -6.54464336	     -1.04459720	      8.63807230	    -11.17634332	     13.19155663
      2.54000000	    -10.61274702	     10.29555113	     -4.54703329	     -2.24178306	     -0.04031338	      0.44227435	     15.89598231	    -11.46041128	      6.12089513	    -58.96142129	    -11.86921096	      6.66425639	     20.57574105	     29.96246857	     14.78483053	      4.27764202	    -26.12700895	     -1.51815805	     -6.59153165	     -1.03415852	      8.55403842	    -11.13971677	     12.95454471
      2.54500000	    -10.62814529	     10.23837848	     -4.44563593	     -2.23472727	     -0.03909569	      0.44174668	     16.91928473	    -11.40758798	      6.09268139	    -59.64584953	    -11.59979093	      6.50199409	     20.81713275	     29.28920249	     14.87975981	      4.55411426	    -25.78086599	     -1.27022462	     -6.68110424	     -1.08681138	      8.51595125	    -11.07479235	     12.68608091
      2.55000000	    -10.66876555	     10.14332191	     -4.32605513	     -2.22777490	     -0.03788572	      0.44116656	     17.95320210	    -11.31088912	      6.05639921	    -60.24048566	    -11.26992587	      6.46771902	     21.24495585	     28.64714812	     14.94279115	      4.85218195	    -25.44729573	     -1.05752785	     -6.81282459	     -1.24002531	      8.48656539	    -10.96382529	     12.37252278
      2.55500000	    -10.65808213	     10.03890073	     -4.25280812	     -2.22078091	     -0.03655834	      0.44064937	     18.91667261	    -11.18667474	      6.05403308	    -60.71380359	    -11.02299312	      6.40331939	     21.90703423	     27.91578939	     14.97726161	      5.15030846	    -25.06168493	     -0.79813763	     -6.91450056	     -1.49535395	      8.42465249	    -10.83704203	     12.13722684
      2.56000000	    -10.63142941	      9.92173095	     -4.12471003	     -2.21377014	     -0.03521754	      0.44013868	     19.82466235	    -11.06614732	      5.96459336	    -61.12612000	    -10.62405798	      6.44405686	     22.21347241	     27.14801119	     15.00584068	      5.47092631	    -24.64744017	     -0.57140175	     -6.95311611	     -1.55149528	      8.34294614	    -10.71664470	     11.82629631
      2.56500000	    -10.60734934	      9.78813378	     -3.99660833	     -2.20676186	     -0.03384689	      0.43957980	     20.71810160	    -10.92835399	      5.86961372	    -61.44586063	    -10.25380217	      6.51447083	     22.60838309	     26.36096469	     15.01993720	      5.82870090	    -24.19993358	     -0.37878627	     -7.05649470	     -1.70271099	      8.27021435	    -10.57016939	     11.52741693
      2.57000000	    -10.57849873	      9.63228929	     -3.85163987	     -2.19982767	     -0.03248114	      0.43901346	     21.58543215	    -10.76353093	      5.75100084	    -61.69009025	     -9.84266181	      6.57460815	     22.95802718	     25.56675432	     15.00736586	      6.19638945	    -23.74840365	     -0.18577331	     -7.11790786	     -1.82292480	      8.17842694	    -10.40402560	     11.22488965
      2.57500000	    -10.54379589	      9.46631799	     -3.69380733	     -2.19286402	     -0.03109043	      0.43843018	     22.41939093	    -10.59419725	      5.60330452	    -61.84453408	     -9.45376306	      6.61683006	     23.30242387	     24.74397483	     14.98034482	      6.57139666	    -23.26146494	     -0.00297134	     -7.16951496	     -1.95966798	      8.09002826	    -10.22840638	     10.90762524
      2.58000000	    -10.50552542	      9.28813034	     -3.52413467	     -2.18591188	     -0.02969679	      0.43784200	     23.22565967	    -10.41344452	      5.43224042	    -61.91747893	     -9.07420562	      6.62391409	     23.60977614	     23.90465527	     14.93257160	      6.94479952	    -22.75035344	      0.17814645	     -7.18840536	     -2.07892178	      7.99897734	    -10.04177829	     10.58989899
